HIERARCHY
ROOT Hips
{
	OFFSET 0.000000 0.000000 0.000000
	CHANNELS 6 Xposition Yposition Zposition Zrotation Yrotation Xrotation 
	JOINT LHipJoint
	{
		OFFSET 0.000000 0.000000 0.000000
		CHANNELS 3 Zrotation Yrotation Xrotation
		JOINT LeftUpLeg
		{
			OFFSET 1.363060 -1.794630 0.839290
			CHANNELS 3 Zrotation Yrotation Xrotation
			JOINT LeftLeg
			{
				OFFSET 2.448110 -6.726130 0.000000
				CHANNELS 3 Zrotation Yrotation Xrotation
				JOINT LeftFoot
				{
					OFFSET 2.562200 -7.039590 0.000000
					CHANNELS 3 Zrotation Yrotation Xrotation
					JOINT LeftToeBase
					{
						OFFSET 0.157640 -0.433110 2.322550
						CHANNELS 3 Zrotation Yrotation Xrotation
						End Site
						{
							OFFSET 0.000000 0.000000 0.000000
						}
					}
				}
			}
		}
	}
	JOINT RHipJoint
	{
		OFFSET 0.000000 0.000000 0.000000
		CHANNELS 3 Zrotation Yrotation Xrotation
		JOINT RightUpLeg
		{
			OFFSET -1.305520 -1.794630 0.839290
			CHANNELS 3 Zrotation Yrotation Xrotation
			JOINT RightLeg
			{
				OFFSET -2.542530 -6.985550 0.000000
				CHANNELS 3 Zrotation Yrotation Xrotation
				JOINT RightFoot
				{
					OFFSET -2.568260 -7.056230 0.000000
					CHANNELS 3 Zrotation Yrotation Xrotation
					JOINT RightToeBase
					{
						OFFSET -0.164730 -0.452590 2.363150
						CHANNELS 3 Zrotation Yrotation Xrotation
						End Site
						{
							OFFSET 0.000000 0.000000 0.000000
						}
					}
				}
			}
		}
	}
	JOINT LowerBack
	{
		OFFSET 0.000000 0.000000 0.000000
		CHANNELS 3 Zrotation Yrotation Xrotation
		JOINT Spine
		{
			OFFSET 0.028270 2.035590 -0.193380
			CHANNELS 3 Zrotation Yrotation Xrotation
			JOINT Spine1
			{
				OFFSET 0.056720 2.048850 -0.042750
				CHANNELS 3 Zrotation Yrotation Xrotation
				JOINT Neck
				{
					OFFSET 0.000000 0.000000 0.000000
					CHANNELS 3 Zrotation Yrotation Xrotation
					JOINT Neck1
					{
						OFFSET -0.054170 1.746240 0.172020
						CHANNELS 3 Zrotation Yrotation Xrotation
						JOINT Head
						{
							OFFSET 0.104070 1.761360 -0.123970
							CHANNELS 3 Zrotation Yrotation Xrotation
							End Site
							{
								OFFSET 0.000000 0.000000 0.000000
							}
						}
					}
				}
				JOINT LeftShoulder
				{
					OFFSET 0.000000 0.000000 0.000000
					CHANNELS 3 Zrotation Yrotation Xrotation
					JOINT LeftArm
					{
						OFFSET 3.362410 1.200890 -0.311210
						CHANNELS 3 Zrotation Yrotation Xrotation
						JOINT LeftForeArm
						{
							OFFSET 4.983000 -0.000000 -0.000000
							CHANNELS 3 Zrotation Yrotation Xrotation
							JOINT LeftHand
							{
								OFFSET 3.483560 -0.000000 -0.000000
								CHANNELS 3 Zrotation Yrotation Xrotation
								JOINT LeftFingerBase
								{
									OFFSET 0.000000 0.000000 0.000000
									CHANNELS 3 Zrotation Yrotation Xrotation
									JOINT LeftHandIndex1
									{
										OFFSET 0.715260 -0.000000 -0.000000
										CHANNELS 3 Zrotation Yrotation Xrotation
										End Site
										{
											OFFSET 0.000000 0.000000 0.000000
										}
									}
								}
								JOINT LThumb
								{
									OFFSET 0.000000 0.000000 0.000000
									CHANNELS 3 Zrotation Yrotation Xrotation
									End Site
									{
										OFFSET 0.000000 0.000000 0.000000
									}
								}
							}
						}
					}
				}
				JOINT RightShoulder
				{
					OFFSET 0.000000 0.000000 0.000000
					CHANNELS 3 Zrotation Yrotation Xrotation
					JOINT RightArm
					{
						OFFSET -3.136600 1.374050 -0.404650
						CHANNELS 3 Zrotation Yrotation Xrotation
						JOINT RightForeArm
						{
							OFFSET -5.241900 -0.000000 -0.000000
							CHANNELS 3 Zrotation Yrotation Xrotation
							JOINT RightHand
							{
								OFFSET -3.444170 -0.000000 -0.000000
								CHANNELS 3 Zrotation Yrotation Xrotation
								JOINT RightFingerBase
								{
									OFFSET 0.000000 0.000000 0.000000
									CHANNELS 3 Zrotation Yrotation Xrotation
									JOINT RightHandIndex1
									{
										OFFSET -0.622530 -0.000000 -0.000000
										CHANNELS 3 Zrotation Yrotation Xrotation
										End Site
										{
											OFFSET 0.000000 0.000000 0.000000
										}
									}
								}
								JOINT RThumb
								{
									OFFSET 0.000000 0.000000 0.000000
									CHANNELS 3 Zrotation Yrotation Xrotation
									End Site
									{
										OFFSET 0.000000 0.000000 0.000000
									}
								}
							}
						}
					}
				}
			}
		}
	}
}
MOTION
Frames: 5
Frame Time: 0.033333
1.451825 17.915389 13.168265 -1.966138 7.595544 5.034182 0.999499 18.212084 -2.864909 -23.749314 -5.692763 -8.120400 3.193849 3.627726 17.114313 0.331822 -9.119257 -21.018333 0.000000 0.000000 0.000000 -4.357912 -30.601896 -6.494871 42.695827 14.292109 -6.135918 -9.079388 1.283727 28.973371 -2.406438 13.730095 -21.163704 0.000000 0.000000 0.000000 2.482000 2.790568 16.549967 2.400639 2.606922 -2.951801 -10.885340 4.200939 -6.975843 5.169201 -0.321274 0.578487 4.303959 -0.218997 5.643819 0.000000 0.000000 0.000000 6.345368 9.142321 6.316501 -65.342760 -10.200498 10.641297 -50.446977 -35.528679 0.288239 -2.406851 -9.401779 0.143086 -2.399095 -9.409535 0.000000 0.000000 0.000000 0.000000 0.000000 0.000000 0.000000 -20.986788 -13.886340 -3.970401 96.894599 31.058891 1.878026 143.818825 77.717125 -179.845706 0.104599 -0.237031 0.079192 0.123439 -0.222954 -0.000000 0.000000 0.000000 0.000000 0.000000 0.000000 0.000000 
1.483978 17.908153 13.408383 -2.109696 7.647155 5.078853 0.827235 17.765342 -2.870955 -23.267057 -5.683488 -8.057768 3.570862 3.995238 18.340228 0.332278 -9.336029 -21.751718 0.000000 0.000000 0.000000 -4.272113 -29.859464 -6.621188 41.929407 13.978951 -5.920927 -8.379738 0.630323 29.718999 -2.485259 13.843602 -22.956816 0.000000 0.000000 0.000000 2.467868 2.712556 16.633753 2.430056 2.582530 -3.040480 -10.693287 4.156387 -6.893350 5.067094 -0.306272 0.516087 4.331526 -0.221437 5.669530 0.000000 0.000000 0.000000 6.505823 9.221266 6.310046 -65.484369 -10.126264 11.172329 -50.361729 -36.708725 0.305645 -2.404998 -9.606484 0.151731 -2.397499 -9.614469 0.000000 0.000000 0.000000 0.000000 0.000000 0.000000 0.000000 -20.866190 -13.939552 -3.673469 96.745263 30.676427 1.795872 144.412351 77.001658 -179.852265 0.059086 -0.206320 0.075848 0.077253 -0.192686 -0.000000 0.000000 0.000000 0.000000 0.000000 0.000000 0.000000 
1.515357 17.890068 13.645686 -2.265166 7.721250 5.092406 0.648575 17.380842 -2.930805 -22.797854 -5.591216 -7.939532 4.050048 4.457227 19.716278 0.368724 -9.702453 -23.089267 0.000000 0.000000 0.000000 -4.223583 -29.141054 -6.745800 41.178402 13.614210 -5.636097 -7.580005 -0.033089 30.399743 -2.552462 13.997804 -24.787635 0.000000 0.000000 0.000000 2.470678 2.624556 16.764867 2.454669 2.555225 -3.132690 -10.503865 4.109855 -6.817860 4.963488 -0.291855 0.480691 4.364644 -0.224967 5.708689 0.000000 0.000000 0.000000 6.691117 9.282952 6.308855 -65.635371 -10.050141 11.763943 -50.247840 -38.016462 0.325453 -2.402996 -9.833271 0.161569 -2.395843 -9.841515 0.000000 0.000000 0.000000 0.000000 0.000000 0.000000 0.000000 -20.769003 -14.008864 -3.457366 96.607703 30.359936 1.747084 144.907119 76.416891 -179.857680 0.020641 -0.178915 0.073083 0.038227 -0.165657 -0.000000 0.000000 0.000000 0.000000 0.000000 0.000000 0.000000 
1.546044 17.861144 13.879915 -2.418063 7.804233 5.087114 0.503514 17.019904 -3.005131 -22.381864 -5.484416 -7.765073 4.547000 4.894260 21.078897 0.409015 -10.095847 -24.470714 0.000000 0.000000 0.000000 -4.214881 -28.429108 -6.884186 40.431896 13.204688 -5.284994 -6.669751 -0.710860 31.019028 -2.607478 14.192928 -26.658125 0.000000 0.000000 0.000000 2.473982 2.531572 16.931685 2.473587 2.525586 -3.225785 -10.317770 4.061699 -6.749605 4.858244 -0.278511 0.471189 4.403444 -0.229599 5.760619 0.000000 0.000000 0.000000 6.901370 9.332206 6.310742 -65.796354 -9.970073 12.423146 -50.091775 -39.459588 0.347962 -2.399586 -10.083472 0.172750 -2.392889 -10.092007 0.000000 0.000000 0.000000 0.000000 0.000000 0.000000 0.000000 -20.696695 -14.093127 -3.316410 96.489394 30.115623 1.724753 145.301884 75.950311 -179.862013 -0.009912 -0.155957 0.070868 0.007191 -0.143005 -0.000000 0.000000 0.000000 0.000000 0.000000 0.000000 0.000000 
1.575901 17.821136 14.110897 -2.568386 7.901434 5.062077 0.391721 16.681109 -3.096167 -22.020360 -5.365991 -7.535315 5.067662 5.305906 22.436630 0.454531 -10.520483 -25.904208 0.000000 0.000000 0.000000 -4.246683 -27.714960 -7.036594 39.677960 12.750069 -4.868351 -5.625005 -1.410300 31.569635 -2.650447 14.428828 -28.571643 0.000000 0.000000 0.000000 2.478753 2.430247 17.135679 2.486501 2.491308 -3.318167 -10.136641 4.010044 -6.688793 4.751686 -0.266698 0.488863 4.448254 -0.235448 5.826099 0.000000 0.000000 0.000000 7.139577 9.370513 6.314466 -65.968664 -9.885118 13.161061 -49.877570 -41.057468 0.373624 -2.393670 -10.360035 0.185498 -2.387565 -10.368901 0.000000 0.000000 0.000000 0.000000 0.000000 0.000000 0.000000 -20.654101 -14.194901 -3.253985 96.399622 29.956475 1.724484 145.584663 75.603314 -179.865185 -0.030873 -0.139158 0.069244 -0.014136 -0.126432 -0.000000 0.000000 0.000000 0.000000 0.000000 0.000000 0.000000 
